<svg width="28" height="28" viewBox="0 0 28 28" fill="none" xmlns="http://www.w3.org/2000/svg">
<path d="M0.738751 13.9417C0.567499 14.577 0.871334 15.2012 1.48453 15.4608C1.6834 15.5382 3.52298 15.5768 7.37893 15.5768L12.9861 15.5824L12.9861 21.184C12.9916 25.0454 13.0303 26.885 13.1076 27.0839C13.2788 27.4872 13.533 27.7192 13.9418 27.8297C14.5771 28.0009 15.2013 27.6971 15.4609 27.0839C15.5383 26.885 15.5769 25.0454 15.5825 21.184L15.5825 15.5824L21.1896 15.5768C25.0455 15.5768 26.8851 15.5382 27.084 15.4608C27.6972 15.2012 28.001 14.577 27.8298 13.9417C27.7193 13.5329 27.4873 13.2787 27.084 13.1075C26.8851 13.0302 25.0455 12.9915 21.1841 12.986L15.5825 12.986L15.5769 7.37883C15.5769 3.52288 15.5383 1.6833 15.4609 1.48443C15.2013 0.871234 14.5771 0.567399 13.9418 0.738652C13.533 0.849137 13.2788 1.08116 13.1076 1.48443C13.0303 1.6833 12.9916 3.52288 12.9916 7.37883L12.9861 12.986L7.37893 12.9915C3.52298 12.9915 1.6834 13.0302 1.48453 13.1075C1.08126 13.2787 0.849237 13.5329 0.738751 13.9417Z" fill="#A09F9A"/>
</svg>
