<svg width="182" height="51" viewBox="0 0 182 51" fill="none" xmlns="http://www.w3.org/2000/svg">
<path d="M87.1606 0.373966C86.6744 0.673233 86.45 1.15954 86.3253 2.1571C86.2256 3.04243 86.4251 3.44145 87.0484 3.55367C87.6093 3.6659 88.4695 3.41651 88.831 3.0549C89.4044 2.4813 89.0055 2.20697 88.3074 2.68081C88.0581 2.85538 87.7714 2.99255 87.6716 2.99255C87.3226 2.99255 87.011 2.73069 87.011 2.44389C87.011 2.1945 87.0858 2.14463 87.5844 2.06981C87.9085 2.0324 88.3573 1.99499 88.5816 1.99499C88.806 1.99499 89.0803 1.90771 89.18 1.79548C89.4667 1.50869 89.4418 0.685702 89.1301 0.373966C88.7811 0.0248222 87.7215 0.0248222 87.1606 0.373966ZM88.3947 0.74805C88.5193 0.822866 88.6315 1.00991 88.6315 1.17201C88.6315 1.44634 88.5816 1.47128 87.8836 1.52115C87.4223 1.54609 87.1356 1.50869 87.1356 1.43387C87.1356 1.18448 87.5096 0.760519 87.7963 0.710641C87.9459 0.685703 88.083 0.648294 88.1079 0.635825C88.1329 0.635825 88.2575 0.685703 88.3947 0.74805Z" fill="#333333"/>
<path d="M83.9319 1.39659C83.5206 1.89537 83.0967 2.44402 82.9721 2.6186C82.81 2.83058 82.7726 2.85552 82.8225 2.69341C82.9471 2.34427 83.1466 0.835466 83.0843 0.74818C82.997 0.611017 82.3987 0.76065 82.3987 0.922752C82.3987 0.997569 82.3114 1.62104 82.2117 2.30686C81.9748 3.97776 81.9748 3.99023 82.3114 3.99023C82.5358 3.99023 82.8225 3.71591 83.4582 2.89292C83.9319 2.29439 84.3558 1.7582 84.4056 1.69586C84.468 1.63351 84.4555 1.77067 84.3932 2.00759C84.3433 2.24451 84.2436 2.73082 84.2062 3.09243L84.1189 3.76578L84.468 3.71591C84.817 3.6785 84.8295 3.65356 84.9791 2.6186C85.0539 2.03253 85.1661 1.32177 85.2034 1.02251C85.2782 0.52373 85.2658 0.498791 84.9666 0.498791C84.7297 0.498791 84.4804 0.723241 83.9319 1.39659Z" fill="#333333"/>
<path d="M80.1922 0.972451C80.1174 1.02233 79.9678 1.62086 79.8806 2.30668L79.7185 3.55362L79.2448 3.62844C78.983 3.66585 78.7587 3.66585 78.7337 3.62844C78.7088 3.59103 78.7587 3.04238 78.8584 2.43138C78.9456 1.8079 79.0329 1.27172 79.0329 1.20937C79.0329 1.05974 78.4096 1.10962 78.3473 1.27172C78.3099 1.359 78.2102 1.9326 78.1229 2.55607L77.9733 3.67832L77.4996 3.79054C77.2503 3.85289 77.0135 3.8903 76.9885 3.85289C76.9636 3.82795 77.0135 3.29177 77.1132 2.68076C77.3376 1.18443 77.35 1.22184 76.9511 1.27172C76.6021 1.30913 76.6021 1.3216 76.3652 2.90521C76.2406 3.77807 76.1533 4.52624 76.1907 4.55118C76.2156 4.57612 76.9885 4.52624 77.911 4.42649C80.2795 4.16463 80.1548 4.15216 80.0676 4.67587C80.0052 5.04996 80.0302 5.1123 80.2421 5.1123C80.6036 5.1123 80.7282 4.90032 80.828 4.13969C80.9028 3.54116 80.8903 3.49128 80.6535 3.49128C80.454 3.49128 80.4166 3.42893 80.4665 3.20448C80.5163 2.96756 80.7781 1.07221 80.7781 0.922574C80.7781 0.835288 80.3543 0.872696 80.1922 0.972451Z" fill="#333333"/>
<path d="M74.3084 2.43147C74.2336 2.95519 74.1712 3.50384 74.1712 3.66594C74.1712 4.00262 73.9593 4.11484 73.3485 4.11484C72.7875 4.11484 72.7377 3.94027 72.8997 2.76814C72.9745 2.23196 72.9995 1.77059 72.9496 1.72071C72.8997 1.67083 72.7377 1.65836 72.5881 1.69577C72.3762 1.75812 72.3014 1.92022 72.1892 2.69333C71.9149 4.58868 72.0147 4.81313 73.2114 4.77572C73.9967 4.76325 74.0092 4.76325 73.9469 5.06252C73.8347 5.66105 72.987 5.94785 72.5507 5.54883C72.3637 5.37426 72.3014 5.37426 72.0396 5.61118L71.7404 5.86056L72.0521 6.12242C72.3138 6.3344 72.4884 6.37181 73.0743 6.3344C73.6601 6.29699 73.8721 6.20971 74.1712 5.92291C74.5701 5.54883 74.6823 5.1124 74.9192 3.24198C74.994 2.65592 75.0812 2.03245 75.1186 1.83294C75.181 1.5212 75.156 1.49626 74.8195 1.49626C74.458 1.49626 74.4455 1.50873 74.3084 2.43147Z" fill="#333333"/>
<path d="M59.8356 1.70827C59.524 1.74568 59.2248 1.80803 59.1749 1.87037C59.0628 1.97013 58.427 6.23468 58.5018 6.30949C58.6015 6.40925 60.9202 6.07257 61.2193 5.91047C61.7803 5.62367 62.0795 5.13737 62.0795 4.53883C62.0795 4.12734 62.0171 3.96524 61.8052 3.81561C61.6556 3.70338 61.5933 3.61609 61.6806 3.61609C61.8925 3.61609 62.2041 2.94274 62.2041 2.45644C62.2041 1.65839 61.8177 1.54617 59.8356 1.70827ZM61.3939 2.61854C61.4936 2.91781 61.2817 3.3293 60.9949 3.41658C60.8703 3.45399 60.4963 3.51634 60.1597 3.56622C59.6112 3.64103 59.5614 3.62856 59.6237 3.44152C59.6736 3.31683 59.711 3.06744 59.711 2.86793C59.711 2.46891 59.8356 2.40656 60.7332 2.38162C61.2069 2.36915 61.3315 2.41903 61.3939 2.61854ZM61.2692 4.48895C61.4562 5.06255 60.8703 5.48651 59.8855 5.48651H59.337L59.4118 4.95032C59.4617 4.66353 59.5614 4.3892 59.6362 4.33932C59.711 4.28944 60.0974 4.23957 60.4839 4.23957C61.0822 4.23957 61.2069 4.27697 61.2692 4.48895Z" fill="#333333"/>
<path d="M69.3969 2.00745C68.2749 2.13215 68.1877 2.16956 68.1877 2.58105C68.1752 3.39156 67.8386 4.40159 67.4522 4.7632C67.2029 4.98765 67.0658 5.24951 67.0658 5.46149C67.0658 5.64853 67.0284 5.92286 66.9785 6.08496C66.9162 6.34682 66.9411 6.37176 67.2652 6.33435C67.5644 6.30941 67.6392 6.23459 67.6641 5.92286C67.689 5.71088 67.7514 5.51137 67.7888 5.47396C67.8386 5.42408 68.3747 5.34926 68.973 5.29939L70.0825 5.2121L70.0326 5.62359C70.0077 5.92286 70.0451 6.04755 70.1822 6.07249C70.5312 6.13484 70.6933 5.89792 70.7681 5.19963C70.8304 4.57616 70.8179 4.48887 70.6185 4.48887C70.4315 4.48887 70.4066 4.41406 70.4814 3.89034C70.5312 3.56613 70.5936 2.98007 70.6434 2.58105C70.7307 1.77054 70.8553 1.83288 69.3969 2.00745ZM69.8955 3.01748C69.8581 3.24193 69.7833 3.69083 69.7334 4.01503C69.6586 4.58863 69.6462 4.61357 69.2473 4.61357C69.0229 4.61357 68.7362 4.65098 68.6115 4.70085C68.437 4.7632 68.4121 4.72579 68.4869 4.4764C68.5367 4.3143 68.6364 3.85293 68.7237 3.46638C68.8733 2.73068 68.9481 2.65587 69.6088 2.63093C69.9453 2.61846 69.9578 2.6434 69.8955 3.01748Z" fill="#333333"/>
<path d="M64.236 2.61841C63.6128 2.99249 63.4133 3.40398 63.351 4.42648C63.2886 5.46144 63.3759 5.67342 63.9618 5.79812C64.7596 5.97269 66.0685 5.4365 66.0685 4.92526C66.0685 4.63846 65.6447 4.65093 65.2832 4.9502C64.6848 5.4365 63.8621 5.24946 63.9743 4.65093C63.9992 4.47636 64.2111 4.40154 65.0089 4.30178C65.5574 4.22697 66.081 4.12721 66.1682 4.07733C66.2555 4.01499 66.3178 3.71572 66.3178 3.36658C66.3178 2.88027 66.268 2.71817 66.0436 2.56853C65.6571 2.2942 64.7222 2.31914 64.236 2.61841ZM65.6197 3.26682C65.707 3.40399 65.707 3.52868 65.6322 3.59103C65.4702 3.74066 64.074 3.87782 64.074 3.75313C64.074 3.69078 64.1986 3.50374 64.3358 3.3167C64.5477 3.04237 64.6848 2.99249 65.0463 3.01743C65.2956 3.04237 65.5449 3.14213 65.6197 3.26682Z" fill="#333333"/>
<path d="M20.2444 6.15983C20.0325 6.25959 19.7458 6.49651 19.6086 6.68355C19.4715 6.88306 18.1377 9.53905 16.6418 12.5941C15.1584 15.6491 13.7871 18.3051 13.6001 18.4921C13.276 18.8288 13.1638 18.8537 10.9574 19.0906C3.04165 19.9386 1.25905 20.163 0.847676 20.4124C0.324115 20.7117 5.00828e-06 21.5222 0.211923 21.9835C0.299183 22.1706 1.8574 23.3427 4.13864 24.9388C8.97535 28.343 8.71357 28.1434 8.80083 28.4926C8.85069 28.717 8.2274 30.2134 6.35754 34.3782C3.65247 40.376 3.45302 40.9371 4.00151 41.3236C4.43781 41.6229 4.86165 41.573 5.55973 41.1366C6.9559 40.2513 15.096 34.3782 15.3204 34.0914C15.657 33.6674 15.7692 32.8943 15.5573 32.4579C15.47 32.2708 15.1584 31.9965 14.8841 31.8593C14.0364 31.4354 13.6251 31.0738 13.3259 30.4752C13.0766 29.939 13.0641 29.7769 13.1264 28.318C13.2137 26.5349 13.5877 24.1408 14.0364 22.5696C14.56 20.7865 15.5573 19.6268 17.3274 18.7789C18.038 18.4422 18.2623 18.3923 19.1973 18.3923C20.0449 18.3923 20.3566 18.4547 20.7555 18.6667C21.7777 19.2153 22.4259 20.2752 22.4384 21.41C22.4384 22.3078 22.1641 22.5073 20.7306 22.6195C19.5837 22.7068 19.0227 22.9312 19.0975 23.2928C19.1349 23.4799 19.2596 23.4923 20.0075 23.4425C21.7901 23.3302 22.1267 23.3552 22.1641 23.6295C22.2389 24.1657 21.9397 24.3278 20.5062 24.5148C19.1225 24.7019 18.7236 24.8765 18.8607 25.2381C18.948 25.475 19.1349 25.475 20.5685 25.3129C21.7403 25.1757 22.0395 25.2879 21.8774 25.7992C21.7527 26.1857 21.4785 26.2855 20.1197 26.4476C19.1474 26.5474 18.8358 26.6346 18.6737 26.8342C18.549 26.9713 18.4867 27.1459 18.5241 27.2082C18.574 27.2831 19.1848 27.308 20.0574 27.2831L21.5034 27.2457L21.491 27.6447C21.4411 28.717 20.3067 30.3256 18.9355 31.2483C18.4244 31.5975 17.8884 32.0589 17.7388 32.2958C17.3897 32.807 17.3523 33.6549 17.6764 34.0166C18.038 34.453 25.4426 39.0417 25.8914 39.1166C26.203 39.1664 26.4274 39.1041 26.7764 38.8672C27.6864 38.2686 27.6864 38.3933 26.7515 32.6324C26.3027 29.8019 25.9288 27.3205 25.9288 27.096C25.9288 26.8591 26.0534 26.5598 26.228 26.3479C26.4025 26.1483 28.8208 24.2405 31.6132 22.1207C34.4304 19.976 36.7864 18.1056 36.9236 17.8936C37.1978 17.4322 37.2103 16.7963 36.9485 16.5344C36.8488 16.4222 36.5496 16.3349 36.3003 16.3349C36.051 16.3349 33.2462 16.6217 30.0674 16.9708C26.2529 17.3948 24.2459 17.5694 24.1711 17.4945C24.0963 17.4197 23.5977 15.2625 23.0492 12.7063C22.5132 10.1376 21.9771 7.66863 21.8649 7.19479C21.5907 6.03514 21.1669 5.76081 20.2444 6.15983Z" fill="#333333"/>
<path d="M117.677 7.30707C113.164 7.64375 112.466 7.7435 111.357 8.27969C109.724 9.06526 108.826 10.3621 108.726 12.0953C108.676 12.9308 108.714 13.1552 108.951 13.654C109.275 14.3274 110.098 14.9259 110.845 15.0506C111.107 15.088 111.319 15.1503 111.319 15.2002C111.319 15.2376 110.796 15.5992 110.16 15.9983C109.088 16.6841 108.976 16.7215 108.39 16.6716C108.053 16.6467 107.679 16.5843 107.567 16.5345C107.405 16.4596 107.33 16.734 107.093 18.3425C106.881 19.7391 106.844 20.2628 106.956 20.375C107.031 20.4499 107.555 20.5122 108.24 20.5122C110.01 20.5122 110.409 20.2379 113.039 17.2327C113.9 16.2601 114.623 15.4746 114.648 15.512C114.685 15.5369 114.672 15.8736 114.623 16.2601L114.535 16.9584H114.062H113.6L113.326 18.3425C113.177 19.1032 113.064 19.7391 113.089 19.764C113.114 19.789 113.75 19.7391 114.498 19.6393C115.258 19.5521 116.679 19.4149 117.677 19.3276C120.27 19.1281 119.983 19.3151 120.232 17.6941C120.344 16.9335 120.419 16.2975 120.394 16.2601C120.357 16.2352 119.958 16.2975 119.497 16.4098C119.048 16.5345 118.649 16.5968 118.612 16.5594C118.587 16.5345 118.761 15.0007 119.023 13.1677L119.484 9.8259L120.382 9.87578L121.292 9.91318L121.354 9.5391C121.441 9.01538 121.666 7.23225 121.666 7.09509C121.666 7.03274 121.628 6.99534 121.578 6.99534C121.516 7.0078 119.771 7.14497 117.677 7.30707ZM115.433 10.3746C115.42 10.998 115.046 12.9058 114.909 12.9931C114.623 13.1926 113.226 13.043 112.952 12.7936C112.416 12.3073 112.703 11.1103 113.463 10.6614C114.186 10.2374 115.433 10.0628 115.433 10.3746Z" fill="#333333"/>
<path d="M100.848 9.04033C100.125 9.12761 98.7288 9.26478 97.7315 9.35207C96.7343 9.42688 95.8118 9.51417 95.6622 9.53911C95.4378 9.58898 95.3755 9.76356 95.201 10.998C95.1012 11.7711 95.0264 12.4195 95.0389 12.4445C95.0638 12.457 95.4503 12.3821 95.9115 12.2699C96.3727 12.1577 96.7716 12.0953 96.809 12.1327C96.8464 12.1702 96.6844 13.654 96.4351 15.4247C96.1858 17.1953 95.9863 18.6917 95.9863 18.754C95.9863 18.8164 95.5625 18.8288 95.0514 18.8039C94.4156 18.7665 94.1164 18.7914 94.1164 18.8787C94.1164 18.9535 94.0292 19.6019 93.9295 20.3252C93.8422 21.0359 93.7674 21.6345 93.7799 21.6469C93.8297 21.6719 101.434 21.0858 102.095 21.011C103.503 20.8364 104.7 20.2254 105.597 19.2279C106.295 18.4672 106.707 17.4323 106.794 16.2726C106.906 14.7638 106.433 13.7912 105.286 13.1802C104.837 12.9433 104.588 12.9059 103.154 12.9059C102.269 12.9059 101.347 12.9433 101.122 12.9931L100.711 13.0929L100.798 12.432C100.848 12.0829 100.898 11.7587 100.923 11.7337C100.948 11.7088 101.384 11.6589 101.895 11.6215L102.805 11.5716L102.892 10.7362C102.942 10.2873 103.017 9.67627 103.054 9.377L103.129 8.85329L102.643 8.86576C102.369 8.87823 101.571 8.95304 100.848 9.04033ZM102.531 16.0232C102.905 16.3848 102.917 16.5968 102.593 17.2702C102.282 17.9186 101.596 18.3176 100.648 18.4173L99.9629 18.4922L100.025 18.0682C100.112 17.5819 100.349 15.9484 100.349 15.7988C100.349 15.7489 100.773 15.7115 101.284 15.7115C102.119 15.7115 102.269 15.7489 102.531 16.0232Z" fill="#333333"/>
<path d="M51.5833 9.50156C51.2966 9.72601 51.0223 9.77589 49.5888 9.85071C48.4294 9.91305 47.7189 10.0253 47.2203 10.1999C43.8296 11.4094 41.5857 15.6739 41.6107 20.8862C41.6231 23.4175 42.209 24.9637 43.4805 25.8116C44.2784 26.3353 44.8892 26.4974 46.1233 26.4849C49.0029 26.4475 51.5085 24.9886 52.6429 22.6818C53.69 20.5245 53.8894 17.8686 53.0916 16.3223C52.967 16.073 52.6055 15.6365 52.2814 15.3497C51.4711 14.639 50.6484 14.4021 48.9904 14.4145C47.4945 14.4395 46.6094 14.6888 45.5249 15.4121L44.8767 15.8485L45.0637 15.3747C45.3379 14.7263 45.849 13.9906 46.2355 13.7287C46.9086 13.2673 47.3948 13.18 49.6386 13.1551C51.7453 13.1302 51.87 13.1177 52.5182 12.7935C53.3784 12.382 53.8022 11.7835 54.1886 10.4492C54.3507 9.88811 54.4629 9.42674 54.4504 9.41427C54.4255 9.38934 53.852 9.33946 53.1664 9.30205C52.0196 9.22723 51.8949 9.25217 51.5833 9.50156ZM48.9904 17.4197C49.489 17.881 49.6511 18.7289 49.4766 20.0881C49.2023 22.3201 48.3048 23.6294 46.946 23.7791C46.4474 23.8414 46.3477 23.804 46.0111 23.4798C45.4501 22.9187 45.2008 21.9087 45.2881 20.5245C45.3255 19.9011 45.4252 19.1778 45.5 18.9035C45.9363 17.4446 48.0305 16.5593 48.9904 17.4197Z" fill="#333333"/>
<path d="M92.5582 9.73844C90.4515 10.0626 86.7243 10.4492 84.0815 10.5988C82.8474 10.6736 81.8003 10.7734 81.7629 10.8233C81.7006 10.8981 80.5288 16.1602 80.5288 16.3722C80.5288 16.4221 81.0773 16.4595 81.7504 16.4595H82.9721L83.2463 15.5991C83.6078 14.5018 84.1064 13.8159 84.7921 13.4793C85.6023 13.0927 85.8143 13.1177 85.727 13.6164C85.6771 13.8409 85.4777 15.3123 85.2658 16.8959C85.0414 18.467 84.8419 19.7888 84.817 19.8137C84.7796 19.8512 84.443 19.8761 84.0441 19.8761L83.3336 19.8886L83.1964 21.2602C83.1217 22.0084 83.0843 22.6568 83.0967 22.6817C83.1217 22.7067 83.9319 22.6318 84.9167 22.5196C86.5996 22.3326 89.3296 22.0707 89.7659 22.0707C89.9155 22.0707 90.0028 21.7714 90.1648 20.724C90.2895 19.9883 90.3767 19.3274 90.3767 19.2402C90.3767 19.1404 90.1897 19.1529 89.6911 19.29C89.3047 19.4023 88.9806 19.4646 88.9432 19.4397C88.8684 19.3524 89.7659 12.9181 89.8781 12.8059C90.0152 12.6438 90.838 12.8433 91.187 13.1177C91.5485 13.4045 91.748 14.0404 91.748 14.9257C91.748 15.6988 91.6856 15.6739 93.2438 15.3622L94.3034 15.1377L94.3907 13.7785C94.4281 13.0179 94.5029 11.746 94.5528 10.9355L94.6275 9.47658L94.3408 9.48905C94.1788 9.50152 93.381 9.61375 92.5582 9.73844Z" fill="#333333"/>
<path d="M78.5966 11.1851C77.1755 11.3596 77.0758 11.3846 76.6644 11.7961L76.2156 12.22L74.4206 11.9831C72.8125 11.7836 72.5382 11.7711 71.9274 11.9332C69.6088 12.5193 68.1378 14.8511 67.6766 18.6917C67.4273 20.7741 67.7763 22.3701 68.6489 23.2181C69.7085 24.253 70.5063 24.2281 73.3485 23.0684C74.5203 22.5946 75.53 22.1956 75.5799 22.1956C75.6297 22.1956 75.7918 22.4574 75.9289 22.7692L76.1782 23.3552L77.3251 23.2679C77.9484 23.2181 78.8459 23.1557 79.2947 23.1058L80.1174 23.031L80.3293 21.6095C80.4415 20.8115 80.5163 20.1506 80.4914 20.1132C80.454 20.0882 80.1299 20.1506 79.7684 20.2503C79.4069 20.3626 79.0952 20.4249 79.0703 20.4C79.0454 20.375 79.3071 18.3176 79.6562 15.8362C80.3293 10.9606 80.3293 10.9606 80.1922 10.9855C80.1299 10.998 79.4193 11.0853 78.5966 11.1851ZM75.7544 14.7638C75.8167 14.8137 75.3181 18.7789 75.0937 20.1506C75.0314 20.5247 74.9815 20.5496 73.8721 20.8239C72.5881 21.1481 72.1643 21.1107 71.8526 20.6369C71.2792 19.764 71.6532 16.5594 72.4634 15.4247C72.9621 14.7139 73.361 14.5643 74.5951 14.6391C75.1934 14.6765 75.7295 14.7264 75.7544 14.7638Z" fill="#333333"/>
<path d="M61.5808 13.2798C60.4465 13.6539 59.4492 13.9656 59.3744 13.9656C59.2871 13.9656 59.1002 13.7411 58.963 13.4668C58.7511 13.0678 58.6514 12.9805 58.427 13.0179C58.2774 13.0553 57.5419 13.1675 56.7815 13.2798C54.5003 13.604 54.787 13.392 54.5377 15.038C54.413 15.8235 54.3382 16.4969 54.3756 16.5218C54.4006 16.5468 54.7122 16.4844 55.0737 16.3722C55.4228 16.26 55.7469 16.1852 55.7718 16.2226C55.8092 16.26 55.4851 18.8037 55.0613 21.8837L54.2759 27.4949H53.3784C52.8922 27.4949 52.4808 27.4949 52.4808 27.5074C52.4808 27.5074 52.3936 28.1433 52.2939 28.9289C52.1941 29.702 52.1193 30.3504 52.1443 30.3754C52.1567 30.3878 52.8423 30.3255 53.6651 30.2257C54.4878 30.1385 56.1707 29.9639 57.4048 29.8517C58.6389 29.7394 59.686 29.6147 59.7234 29.5773C59.7733 29.5275 59.873 29.0411 59.9478 28.4925C60.0351 27.9438 60.1348 27.3204 60.1722 27.0959L60.2345 26.6969L59.5614 26.8839C59.1999 26.9712 58.7636 27.0585 58.6015 27.0585C58.3273 27.0585 58.3148 27.0336 58.3896 26.46C58.6015 24.9761 58.5392 25.0883 59.3245 25.0135C61.9548 24.7517 62.2415 24.7018 63.164 24.2653C65.707 23.0558 67.2154 20.2377 67.2403 16.7089C67.2403 15.0006 67.0034 14.1651 66.2804 13.4169C65.2832 12.382 64.4106 12.357 61.5808 13.2798ZM62.628 15.5991C63.2513 15.8859 63.4881 17.1702 63.1889 18.7788C62.9147 20.3001 61.9922 21.5595 60.7207 22.1081C59.9603 22.4448 58.963 22.6568 58.963 22.4822C58.963 22.1081 59.8356 16.1727 59.898 16.1103C59.9977 16.0106 61.8052 15.4869 62.1044 15.4744C62.2166 15.4619 62.4534 15.5243 62.628 15.5991Z" fill="#333333"/>
<path d="M174.895 19.0781C172.489 19.714 170.644 21.1979 169.609 23.3302C168.325 25.9862 168.063 29.3654 168.986 31.2358C169.534 32.3206 170.257 32.9316 171.529 33.3681C172.364 33.6549 174.595 33.6923 175.642 33.4304C177.101 33.0688 178.51 32.2708 179.731 31.1236C180.33 30.5625 181.252 29.4277 181.252 29.2656C181.252 29.2033 179.295 27.9314 179.208 27.9314C179.183 27.9314 178.746 28.3429 178.248 28.8417C177.051 30.0263 176.39 30.3505 175.119 30.3629C174.346 30.3629 174.097 30.3131 173.81 30.1011C173.274 29.7145 172.975 28.9913 172.925 27.9813L172.875 27.0959L173.847 27.0211C174.396 26.9837 176.291 26.8466 178.061 26.7219L181.289 26.5099L181.439 26.1233C181.738 25.4001 181.913 24.0409 181.85 22.9436C181.738 21.1231 180.978 19.9136 179.507 19.2153C178.908 18.9409 178.634 18.8911 177.325 18.8661C176.154 18.8412 175.63 18.8786 174.895 19.0781ZM177.45 22.0084C177.712 22.2578 177.762 22.4324 177.762 23.0558C177.762 23.5172 177.699 23.8414 177.612 23.9038C177.388 24.0409 173.523 24.4025 173.523 24.2779C173.523 24.0908 174.134 22.9686 174.446 22.5945C175.206 21.7092 176.839 21.3849 177.45 22.0084Z" fill="#333333"/>
<path d="M166.979 19.9635C165.957 20.0882 164.585 20.2379 163.937 20.2877L162.778 20.3875L162.566 21.0733C162.217 22.208 160.983 24.1657 159.088 26.5848C158.564 27.2582 158.116 27.7819 158.103 27.7569C158.016 27.6697 158.577 23.8291 158.901 22.3577C159.088 21.5098 159.213 20.799 159.175 20.7741C159.15 20.7366 158.527 20.7865 157.816 20.8863C157.093 20.9736 155.622 21.1232 154.538 21.198C152.705 21.3477 152.568 21.3726 152.518 21.622C152.431 22.0584 152.082 24.4401 152.082 24.6146C152.082 24.7643 152.182 24.7643 152.743 24.6271C154.127 24.278 154.077 24.278 154.077 24.5897C154.077 24.7518 153.852 26.5848 153.566 28.6547L153.042 32.4455L152.02 32.3956L150.998 32.3582L150.786 34.0291C150.674 34.9518 150.599 35.7124 150.611 35.7249C150.636 35.7499 151.571 35.6501 152.705 35.5254C153.84 35.3882 155.261 35.2386 155.872 35.1887L156.969 35.1014L157.243 34.3408C157.58 33.4305 157.954 32.7697 159.075 31.1112C160.347 29.2533 161.681 27.5948 161.681 27.8816C161.681 28.4677 161.145 31.9841 160.858 33.2809C160.684 34.054 160.559 34.7149 160.584 34.7274C160.609 34.7523 161.294 34.6899 162.117 34.5902C162.94 34.4904 164.423 34.3408 165.421 34.2535L167.228 34.1039L167.49 32.4205C167.627 31.4978 167.739 30.7247 167.727 30.7122C167.714 30.6873 167.428 30.7496 167.091 30.8494C166.754 30.9491 166.293 31.0489 166.081 31.0988C165.72 31.1611 165.67 31.1362 165.682 30.8868C165.682 30.7371 165.919 28.9291 166.206 26.8716L166.729 23.1308H167.764C168.325 23.1308 168.786 23.1058 168.786 23.0684C168.786 23.031 168.874 22.42 168.973 21.6968C169.198 20.0633 169.198 19.7017 169.011 19.7142C168.923 19.7266 168.013 19.8388 166.979 19.9635Z" fill="#333333"/>
<path d="M149.402 21.647C148.716 21.7342 147.32 21.8714 146.286 21.9587C145.263 22.0335 144.403 22.1208 144.378 22.1333C144.341 22.1582 143.855 25.1384 143.855 25.3504C143.855 25.4003 144.067 25.4127 144.329 25.3629L144.79 25.288L144.291 25.8242C142.833 27.4328 142.284 27.9316 142.022 27.9316C141.798 27.9316 141.736 27.8692 141.736 27.5824C141.736 27.0462 142.06 25.0761 142.371 23.7044C142.521 23.0061 142.621 22.4076 142.571 22.3702C142.533 22.3203 142.06 22.3577 141.524 22.4325C140.988 22.5073 139.542 22.657 138.32 22.7567C137.086 22.8565 136.039 23.0061 136.001 23.0685C135.889 23.243 135.478 26.1983 135.553 26.2731C135.59 26.3105 135.976 26.2482 136.425 26.136C136.874 26.0237 137.31 25.9364 137.41 25.9364C137.535 25.9364 137.46 26.7345 137.036 29.8269C136.737 31.9717 136.475 33.8047 136.438 33.9044C136.388 34.0416 136.163 34.0665 135.403 34.0042L134.431 33.9294L134.219 35.5629C134.094 36.4606 134.032 37.2213 134.069 37.2587C134.107 37.2961 135.266 37.2088 136.662 37.0592C138.046 36.9095 139.816 36.7225 140.601 36.6602C141.387 36.5978 142.047 36.5105 142.097 36.4731C142.172 36.3858 142.496 33.3807 142.421 33.3184C142.409 33.2934 142.06 33.3308 141.661 33.4056C141.274 33.4805 140.938 33.5303 140.913 33.5054C140.888 33.4805 141.038 32.3707 141.187 31.4479C141.249 31.0739 141.274 31.0489 141.773 31.0489H142.297L143.269 33.2809C143.817 34.5154 144.378 35.6252 144.515 35.7748C144.877 36.099 145.525 36.3609 146.223 36.4731C146.884 36.5604 148.455 36.2861 149.165 35.9494L149.651 35.725L149.876 33.7548C150.013 32.6699 150.088 31.7472 150.05 31.7223C150.013 31.6849 149.813 31.7472 149.602 31.847C148.816 32.2584 148.604 32.1712 146.784 30.5377C145.862 29.7022 145.101 28.979 145.101 28.9416C145.101 28.8917 145.949 27.944 146.984 26.8342L148.866 24.8142H149.726C150.2 24.8142 150.586 24.7768 150.586 24.7144C150.586 24.6646 150.674 24.0411 150.773 23.3179C150.998 21.6844 150.998 21.4474 150.811 21.4599C150.723 21.4724 150.088 21.5472 149.402 21.647Z" fill="#333333"/>
<path d="M131.327 23.5297C130.03 23.6669 128.335 23.829 127.562 23.8789C126.428 23.9537 126.153 24.0036 126.104 24.1781C125.979 24.5772 125.642 27.2082 125.692 27.2706C125.73 27.2955 125.991 27.2581 126.278 27.1833C126.565 27.1084 126.827 27.0586 126.852 27.0835C126.901 27.1334 125.817 35.0515 125.755 35.1014C125.68 35.1762 123.249 35.4131 122.675 35.4131C122.052 35.4131 122.052 35.4131 122.102 35.0639C122.139 34.8769 122.364 33.2683 122.601 31.4852C123.224 26.9339 123.074 27.4327 123.785 27.4327C124.383 27.4327 124.383 27.4327 124.458 26.9588C124.67 25.6121 124.795 24.2904 124.732 24.228C124.695 24.1906 123.86 24.2405 122.887 24.3527C121.903 24.4649 120.22 24.627 119.148 24.7143C117.552 24.8265 117.166 24.9014 117.128 25.051C117.016 25.45 116.642 28.1933 116.692 28.2307C116.717 28.2681 117.166 28.1808 117.677 28.0686C118.549 27.8566 118.612 27.8566 118.649 28.0561C118.674 28.1684 118.462 29.9016 118.175 31.9092C117.901 33.9168 117.677 35.6375 117.677 35.7373C117.677 35.8745 117.452 35.9119 116.617 35.9119C116.031 35.9119 115.558 35.9493 115.558 35.9992C115.558 36.049 115.47 36.7847 115.358 37.6327C115.246 38.4806 115.184 39.1913 115.208 39.2287C115.246 39.2537 116.804 39.104 118.686 38.9045C125.243 38.1813 128.771 37.8945 129.295 38.0317C129.993 38.2187 130.167 38.6676 130.242 40.3136C130.305 41.8224 130.192 41.7226 131.576 41.4857L132.449 41.3361L132.972 37.9693C133.62 33.817 133.608 34.0165 133.172 34.1786C132.735 34.3407 130.379 34.6899 130.292 34.6026C130.255 34.5776 130.479 32.7571 130.778 30.5874L131.327 26.6221L132.361 26.6346C132.922 26.6471 133.384 26.6097 133.384 26.5723C133.384 26.5224 133.471 25.8241 133.583 25.0136C133.683 24.2031 133.758 23.4798 133.733 23.3926C133.708 23.2928 133.035 23.3302 131.327 23.5297Z" fill="#333333"/>
<path d="M114.56 25.2629C113.912 25.3502 112.815 25.4624 112.117 25.5123L110.858 25.5996L110.621 27.258C110.484 28.1807 110.409 28.9289 110.447 28.9289C110.484 28.9289 110.721 28.879 110.983 28.8167C111.232 28.7543 111.444 28.7543 111.444 28.8167C111.444 28.9414 108.901 33.8917 108.676 34.2035C108.539 34.3905 108.402 34.0663 107.629 31.7969L106.757 29.1783H107.343C107.804 29.1783 107.953 29.1284 108.003 28.9538C108.103 28.6172 108.377 25.9487 108.315 25.8864C108.29 25.8614 107.654 25.9238 106.894 26.0111C106.146 26.1108 104.513 26.2729 103.279 26.3851C102.045 26.4849 100.998 26.6096 100.96 26.6595C100.885 26.7468 100.474 29.303 100.474 29.702C100.474 29.8641 100.586 29.9015 101.047 29.8891L101.633 29.8641L103.179 34.0414C104.812 38.4306 105.024 39.2785 104.725 40.1888C104.201 41.7724 102.593 42.5954 99.3396 42.957L98.6415 43.0318L98.4296 44.3661C98.1553 46.1617 98.1553 46.1118 98.7038 46.224C99.726 46.4235 101.11 46.3113 102.219 45.9248C103.603 45.4509 104.538 44.8399 105.772 43.5805C107.555 41.7724 108.739 39.8646 112.192 33.1685C113.438 30.737 114.56 28.6421 114.66 28.5174C114.785 28.3803 115.034 28.3054 115.371 28.3054H115.894L116.044 26.8964C116.131 26.1358 116.231 25.4001 116.256 25.2754C116.33 25.026 116.256 25.026 114.56 25.2629Z" fill="#333333"/>
<path d="M96.0487 27.0088C93.9918 27.2333 90.7507 27.5575 88.8434 27.732C86.9362 27.8941 85.3406 28.0687 85.3032 28.1061C85.2034 28.2059 84.7422 31.3108 84.8045 31.3856C84.8419 31.4105 85.2034 31.3482 85.6148 31.2484C86.0262 31.1362 86.475 31.0489 86.6245 31.0489H86.8739L86.637 31.61C86.4999 31.9342 86.1384 33.0191 85.8267 34.0416C85.0913 36.4482 84.8918 36.8971 84.3308 37.3958C83.9195 37.7575 83.7948 37.7949 83.4084 37.7325C82.3862 37.5579 82.4984 37.3584 82.1244 39.7775C81.9374 40.9746 81.7878 42.0844 81.7878 42.234C81.7754 42.633 82.4485 42.8076 83.7574 42.7452C85.0663 42.6829 85.8517 42.3213 86.6121 41.4609C87.2852 40.6878 87.7091 39.6403 88.7437 36.0866C89.903 32.1337 90.4266 30.8245 90.9626 30.6249C91.0748 30.5751 91.5734 30.5127 92.0845 30.4628L92.9945 30.388L92.9322 30.7496C92.8948 30.9491 92.6455 32.7323 92.3713 34.7024C92.097 36.6851 91.8477 38.3435 91.8103 38.4183C91.7604 38.4807 91.4114 38.5306 91.0125 38.5306H90.2895L90.0402 40.1142C89.903 40.9995 89.8033 41.7227 89.8282 41.7477C89.8407 41.7726 90.8754 41.6729 92.1344 41.5357C93.3934 41.3985 95.1885 41.224 96.111 41.1367C97.0334 41.0619 97.8188 40.9746 97.8437 40.9496C97.8936 40.8998 98.3424 38.0941 98.3548 37.7699C98.3548 37.5954 98.2551 37.6078 97.4573 37.8073C96.9587 37.932 96.485 38.0193 96.4226 38.0068C96.298 37.9694 97.2329 30.5501 97.4199 30.0638C97.4697 29.9267 97.6941 29.9017 98.467 29.9641L99.4393 30.0264L99.6513 28.343C99.7634 27.4078 99.8382 26.6347 99.8258 26.6223C99.8008 26.6098 98.1055 26.7844 96.0487 27.0088Z" fill="#333333"/>
<path d="M50.1747 28.3804C49.888 28.4677 42.5955 29.3531 39.9777 29.6149C38.4195 29.7646 37.0981 29.9267 37.0607 29.9765C36.961 30.0763 36.4 33.2061 36.4748 33.2809C36.4997 33.3059 36.8612 33.2311 37.2851 33.1188C37.6964 32.9941 38.0704 32.9193 38.0954 32.9443C38.1203 32.9692 37.8086 35.4007 37.3973 38.356C36.9859 41.2988 36.6493 43.7303 36.6493 43.7428C36.6493 43.7677 36.1881 43.7677 35.6271 43.7553L34.5925 43.7054L34.3806 45.3888C34.2684 46.3115 34.1936 47.0846 34.1936 47.0846C34.3182 47.1719 44.0665 46.3489 44.8144 46.1993C47.0458 45.7379 48.791 44.466 49.6511 42.6455C51.2592 39.2538 49.9254 36.3484 46.5097 35.7624C45.7743 35.6377 45.338 35.6501 43.9169 35.8247C42.9819 35.9369 42.1841 35.9993 42.1467 35.9743C42.1218 35.9369 42.2091 35.1389 42.3337 34.2037L42.5706 32.4829L43.6925 32.3707C46.0111 32.1337 47.0956 32.6076 47.2203 33.9169C47.2701 34.5154 47.2951 34.5528 47.5693 34.4905C47.7189 34.4531 48.3547 34.3034 48.978 34.1538L50.1123 33.8919V33.3557C50.1123 33.069 50.1747 31.822 50.2495 30.6125C50.3118 29.4029 50.3617 28.3929 50.3367 28.368C50.3118 28.3555 50.2495 28.3555 50.1747 28.3804ZM45.338 39.3535C46.0236 39.8648 46.0859 40.9621 45.4751 41.8474C44.8643 42.7452 43.3185 43.3936 41.7478 43.3936H41.0497L41.2741 41.7976C41.3988 40.9247 41.5359 39.977 41.5733 39.6902C41.6481 39.179 41.6606 39.1665 42.1717 39.1166C42.4584 39.0917 43.2063 39.0668 43.8421 39.0792C44.7895 39.0917 45.0388 39.1416 45.338 39.3535Z" fill="#333333"/>
<path d="M75.8541 29.378C74.5577 29.8144 73.4358 30.176 73.361 30.176C73.2862 30.176 73.0992 29.9266 72.9496 29.6149C72.7751 29.2657 72.6006 29.0538 72.4634 29.0538C72.1144 29.0538 68.4245 29.6523 68.3622 29.7146C68.2749 29.8019 67.7763 33.0565 67.8386 33.1188C67.876 33.1437 68.2251 33.0565 68.624 32.9193C69.0229 32.7821 69.3844 32.6948 69.4218 32.7323C69.534 32.8445 67.6517 46.1868 67.5145 46.299C67.4397 46.3489 66.9785 46.3613 66.4923 46.3239L65.6197 46.2491L65.4078 47.8951C65.2956 48.8054 65.2333 49.5785 65.2582 49.6034C65.2832 49.6408 66.3677 49.5411 67.6517 49.4039C68.9356 49.2543 70.818 49.0672 71.8152 48.9924L73.6477 48.8428L73.8471 47.4587C73.9593 46.698 74.084 45.9124 74.1214 45.7129C74.1837 45.4012 74.1712 45.3638 73.9718 45.4386C73.5854 45.5882 72.1518 45.9 72.1019 45.8501C72.0645 45.8252 72.1144 45.3513 72.1767 44.8151C72.4136 43.1318 72.2141 43.3188 73.9219 43.219C76.2156 43.0819 77.4622 42.6704 78.7586 41.598C80.6285 40.0768 81.713 37.72 82.0247 34.5154C82.2615 32.1088 81.8876 30.4005 80.9152 29.4279C79.7933 28.3056 79.0204 28.3056 75.8541 29.378ZM76.9636 32.0589C77.5121 32.3208 77.724 32.9567 77.7115 34.3533C77.6741 37.0841 76.6519 39.0543 74.7821 39.9396C74.084 40.2638 72.8 40.5257 72.8 40.3261C72.8125 40.2638 73.0493 38.5056 73.336 36.4232L73.8721 32.6325L74.9815 32.2958C76.278 31.8968 76.5397 31.8719 76.9636 32.0589Z" fill="#333333"/>
<path d="M66.1308 29.8019C65.7942 29.8517 64.6848 29.964 63.6875 30.0513L61.8551 30.2134L61.6432 31.6598C61.531 32.4579 61.4063 33.206 61.3814 33.3182C61.319 33.5053 61.3814 33.5302 61.7304 33.4679C61.9548 33.4305 62.2166 33.3806 62.3038 33.3432C62.3786 33.3182 62.4534 33.3307 62.4534 33.3806C62.4534 33.4804 59.7234 38.8048 59.6112 38.9295C59.5614 38.9794 59.1251 37.8447 58.6264 36.4107L57.7289 33.7921H58.3273C58.9132 33.7921 58.9381 33.7796 59.0004 33.3806C59.15 32.5701 59.3619 30.5376 59.3245 30.4877C59.2996 30.4627 58.6638 30.5251 57.9034 30.6248C57.1555 30.7121 55.4975 30.8742 54.226 30.9865C52.967 31.0987 51.9199 31.1984 51.9074 31.2109C51.8949 31.2234 51.7827 31.9715 51.6456 32.8818L51.4088 34.5278L51.9822 34.453L52.5681 34.3906L52.78 34.9268C53.7523 37.3583 55.7593 43.0818 55.8092 43.5806C55.8964 44.4784 55.6721 45.1892 55.0612 45.8625C54.226 46.7603 52.9421 47.2591 50.7979 47.496C50.1996 47.5708 49.6885 47.6456 49.6636 47.6581C49.6511 47.683 49.5264 48.3689 49.3893 49.1794L49.1525 50.6508L49.4766 50.7755C49.9752 50.9625 51.9573 50.9126 52.78 50.6882C54.3756 50.2642 56.0211 49.1295 57.3799 47.5459C58.9381 45.7378 60.1971 43.5931 63.5005 37.1588C64.5726 35.0764 65.5449 33.2684 65.6447 33.1561C65.7568 33.0315 66.0685 32.9192 66.3677 32.8943L66.8788 32.8569L67.0284 31.7346C67.1032 31.1112 67.1779 30.4004 67.1779 30.1385C67.1904 29.6273 67.2278 29.6398 66.1308 29.8019Z" fill="#333333"/>
<path d="M176.066 40.1515C175.854 40.2388 175.78 40.4009 175.717 40.9496C175.63 41.6229 175.605 41.6478 175.256 41.6478C174.732 41.6478 173.997 42.0593 173.748 42.4958C173.449 43.007 173.249 44.4285 173.424 44.9024C173.586 45.3637 173.86 45.5134 174.533 45.5134H175.057L174.969 46.1992L174.895 46.885H175.269C175.692 46.885 175.717 46.8476 175.829 45.9997C175.904 45.4261 175.904 45.4136 176.453 45.3388C177.525 45.1767 177.999 44.5033 178.098 43.0195C178.161 42.1466 178.148 42.0344 177.899 41.785C177.699 41.5855 177.487 41.5232 177.026 41.5232H176.428L176.528 40.8747C176.665 40.0268 176.602 39.9271 176.066 40.1515ZM177.263 42.4584C177.5 42.7452 177.226 44.1417 176.877 44.4161C176.577 44.6779 176.016 44.7153 176.016 44.4784C176.016 44.4036 176.079 43.8674 176.166 43.2938L176.303 42.2713H176.702C176.926 42.2713 177.176 42.3586 177.263 42.4584ZM175.505 42.608C175.505 42.7327 175.431 43.2564 175.356 43.7676C175.206 44.6904 175.194 44.7029 174.82 44.7403C174.259 44.7901 174.097 44.5408 174.196 43.7178C174.309 42.8699 174.645 42.396 175.156 42.396C175.418 42.396 175.518 42.4584 175.505 42.608Z" fill="#333333"/>
<path d="M170.033 42.2213C169.659 42.3211 169.297 42.4583 169.248 42.5081C169.185 42.5705 168.998 43.593 168.836 44.7776C168.674 45.9746 168.525 47.072 168.487 47.2341C168.45 47.4835 168.487 47.5209 168.836 47.4835C169.21 47.446 169.223 47.4086 169.347 46.7103L169.472 45.9746L170.133 45.9372C171.417 45.8749 171.953 45.2265 172.102 43.5431C172.165 42.8324 172.14 42.6578 171.953 42.4209C171.641 42.0468 170.93 41.972 170.033 42.2213ZM171.155 42.957C171.379 43.2314 171.242 44.5905 170.968 44.9023C170.731 45.1392 170.033 45.3387 169.746 45.2265C169.609 45.1766 169.609 44.9771 169.734 44.0668C169.821 43.4558 169.896 42.9446 169.896 42.9321C169.908 42.8947 170.444 42.8074 170.731 42.7825C170.881 42.7825 171.068 42.8573 171.155 42.957Z" fill="#333333"/>
<path d="M164.498 42.8698C164.461 42.9321 164.398 43.2813 164.349 43.6554C164.249 44.4285 164.162 44.5158 163.526 44.5158C162.965 44.5158 162.878 44.3911 162.915 43.618C162.94 43.0319 162.927 43.0194 162.578 43.0194C162.254 43.0194 162.204 43.0693 162.13 43.4808C161.893 44.9522 162.142 45.3263 163.314 45.2889L164.062 45.2639L164.037 45.8625C164.012 46.1867 164.037 46.4361 164.087 46.4111C164.137 46.3987 164.311 46.3862 164.473 46.3862C164.747 46.3862 164.772 46.3238 164.972 44.7277C165.096 43.8299 165.209 43.007 165.246 42.9197C165.296 42.7576 164.61 42.6952 164.498 42.8698Z" fill="#333333"/>
<path d="M159.886 43.5555C159.674 43.7925 159.188 44.3785 158.814 44.8648C158.44 45.3511 158.128 45.7377 158.103 45.7252C158.091 45.7003 158.128 45.4883 158.178 45.2514C158.24 45.0145 158.328 44.5032 158.377 44.1042C158.452 43.4059 158.452 43.3934 158.141 43.3934C157.717 43.3934 157.629 43.6179 157.393 45.3885C157.143 47.1966 157.131 47.1343 157.492 47.1343C157.816 47.1343 158.103 46.8475 159.188 45.4259C159.562 44.9272 159.873 44.5406 159.898 44.5656C159.911 44.578 159.886 44.7651 159.823 44.977C159.761 45.1766 159.674 45.6878 159.624 46.1118L159.537 46.8849H159.861C160.085 46.8849 160.222 46.7976 160.31 46.5981C160.397 46.3736 160.808 43.6553 160.808 43.2563C160.808 42.9944 160.247 43.1814 159.886 43.5555Z" fill="#333333"/>
<path d="M154.152 43.7677C153.329 44.0171 152.967 44.653 152.868 46.0621C152.805 47.0472 152.805 47.1095 153.092 47.2966C153.503 47.5833 154.476 47.5709 155.074 47.2591C155.548 47.0222 156.021 46.3863 155.859 46.2117C155.697 46.0496 155.199 46.1494 155.074 46.3738C154.937 46.6481 154.201 46.9225 153.915 46.8102C153.628 46.7105 153.566 46.4486 153.653 45.688C153.765 44.7653 154.077 44.3912 154.725 44.3912C155.111 44.3912 155.236 44.441 155.286 44.6406C155.361 44.9274 155.672 44.9648 156.009 44.7154C156.221 44.5657 156.233 44.5034 156.096 44.2166C155.859 43.6929 155.049 43.5058 154.152 43.7677Z" fill="#333333"/>
<path d="M150.723 45.2265C150.649 45.8375 150.536 46.461 150.487 46.6231C150.337 47.1219 149.228 47.284 149.053 46.8351C149.016 46.7353 149.053 46.1617 149.153 45.5507C149.24 44.9522 149.277 44.416 149.228 44.3661C149.19 44.3287 149.003 44.3163 148.829 44.3537C148.529 44.4036 148.492 44.4784 148.355 45.426C148.155 46.8476 148.18 47.3089 148.442 47.5334C148.766 47.8326 149.115 47.895 149.751 47.7703C150.3 47.6705 150.337 47.683 150.337 47.9324C150.337 48.6432 149.477 49.0796 148.878 48.693C148.629 48.5185 148.505 48.506 148.268 48.6182C147.906 48.7803 147.881 49.0172 148.23 49.3165C148.567 49.6282 149.689 49.6158 150.237 49.2916C150.861 48.93 151.048 48.4686 151.322 46.5358C151.671 44.1542 151.671 44.1417 151.222 44.1417C150.861 44.1417 150.861 44.1417 150.723 45.2265Z" fill="#333333"/>
<path d="M132.636 44.4035C132.461 44.4533 132.05 44.5282 131.726 44.578C131.289 44.6404 130.99 44.7775 130.654 45.0768C130.155 45.5382 129.98 45.9497 129.769 47.3088C129.444 49.3663 129.631 49.8152 130.803 49.8027C132.1 49.7778 132.723 49.1917 132.922 47.8326C133.047 46.9597 133.035 46.8599 132.798 46.5482C132.486 46.1118 131.626 46.012 131.003 46.3238L130.604 46.5357L130.691 46.1741C130.828 45.6255 131.152 45.3885 131.938 45.2639C133.01 45.0893 133.134 45.0394 133.134 44.7027C133.134 44.3286 133.035 44.2788 132.636 44.4035ZM132.075 47.7203C132.075 48.2815 132.012 48.5433 131.838 48.7304C131.551 49.067 130.978 49.1917 130.641 49.0047C130.392 48.8675 130.379 48.7927 130.454 48.1568C130.566 47.2091 130.89 46.8599 131.576 46.9098L132.075 46.9472V47.7203Z" fill="#333333"/>
<path d="M145.475 44.653C144.964 44.7154 144.478 44.7902 144.403 44.8151C144.316 44.8525 144.216 45.1768 144.166 45.5384C144.029 46.6856 143.755 47.4711 143.394 47.7455C143.107 47.9824 143.082 48.0447 143.207 48.3315C143.331 48.5809 143.394 48.6183 143.593 48.5186C144.229 48.1694 144.678 47.2716 144.914 45.8501C144.989 45.4012 145.002 45.3887 145.525 45.3887H146.061L145.899 46.5359C145.662 48.1944 145.662 48.2567 146.024 48.2567C146.198 48.2567 146.373 48.1944 146.41 48.132C146.473 48.0323 146.971 44.8276 146.971 44.5533C146.971 44.5034 146.56 44.5283 145.475 44.653Z" fill="#333333"/>
<path d="M139.965 45.2142C139.629 45.3139 139.355 45.4885 139.317 45.6132C139.267 45.7753 138.619 50.2768 138.619 50.4638C138.619 50.5012 138.769 50.5012 138.943 50.4763C139.342 50.4264 139.454 50.2518 139.554 49.4662L139.629 48.8802H140.202C141.549 48.8802 142.085 48.2567 142.297 46.4112C142.371 45.7005 142.359 45.6257 142.06 45.3264C141.81 45.077 141.636 45.0147 141.15 45.0271C140.826 45.0271 140.29 45.1144 139.965 45.2142ZM141.362 45.9499C141.474 46.0746 141.486 46.3489 141.424 46.8477C141.312 47.8078 141.013 48.132 140.265 48.132H139.716L139.779 47.7205C139.816 47.5085 139.891 47.0347 139.941 46.698C139.978 46.3489 140.103 45.9997 140.215 45.9125C140.489 45.7005 141.175 45.7254 141.362 45.9499Z" fill="#333333"/>
<path d="M166.493 45.4636C166.206 45.7379 166.281 46.1868 166.617 46.2367C166.966 46.2866 167.315 45.9374 167.265 45.5883C167.216 45.2516 166.767 45.1768 166.493 45.4636Z" fill="#333333"/>
<path d="M137.285 45.4884C136.961 45.5383 136.936 45.6131 136.737 47.097L136.587 48.2566L136.114 48.3813C135.765 48.4811 135.553 48.4811 135.366 48.3688C135.079 48.2192 135.079 48.2067 135.341 46.2116L135.415 45.6006L135.054 45.6879C134.855 45.7378 134.68 45.8001 134.655 45.8251C134.63 45.8375 134.53 46.4111 134.431 47.0845C134.219 48.5434 134.306 48.9175 134.942 49.1295C135.316 49.2542 135.59 49.2292 136.288 49.0422C136.475 48.9923 136.5 49.0422 136.425 49.3415C136.326 49.7779 135.827 50.2517 135.453 50.2517C135.291 50.2517 135.066 50.1395 134.942 50.0023C134.742 49.7779 134.692 49.7779 134.368 49.9525C133.957 50.152 133.932 50.2393 134.169 50.551C134.555 51.0747 136.051 50.9874 136.65 50.4138C136.837 50.2393 137.049 49.9151 137.111 49.7031C137.31 49.0796 137.759 45.6006 137.659 45.5133C137.597 45.4759 137.435 45.4635 137.285 45.4884Z" fill="#333333"/>
</svg>
